<?xml version="1.0" encoding="utf-8" ?>
<svg baseProfile="full" height="20px" version="1.1" width="138px" xmlns="http://www.w3.org/2000/svg" xmlns:ev="http://www.w3.org/2001/xml-events" xmlns:xlink="http://www.w3.org/1999/xlink"><defs /><path d="M224.4010009765625 103.59912109375 318.0013427734375 630.600830078125H288.60009765625Q251.599853515625 630.600830078125 228.29974365234375 627.600830078125Q204.9996337890625 624.600830078125 192.6995849609375 615.100830078125Q180.3995361328125 605.600830078125 174.99951171875 587.600830078125L146.99951171875 480.0013427734375H57.600830078125L98.6005859375 710H760.99755859375L719.997802734375 480.0013427734375H631.399169921875L642.1990966796875 587.600830078125Q644.1990966796875 605.600830078125 633.8990478515625 615.100830078125Q623.5989990234375 624.600830078125 600.6988525390625 627.600830078125Q577.7987060546875 630.600830078125 540.198486328125 630.600830078125H510.7972412109375L417.596923828125 104.399169921875Q413.596923828125 82.399169921875 429.09722900390625 75.19915771484375Q444.5975341796875 67.9991455078125 470.7979736328125 67.9991455078125H485.5980224609375L472.9981689453125 0H131.800048828125L144.39990234375 67.9991455078125H159.199951171875Q185.400390625 67.9991455078125 202.90069580078125 75.19915771484375Q220.4010009765625 82.399169921875 224.4010009765625 103.59912109375Z" fill="#1D2026" transform="translate(0.0,15) scale(0.02,-0.02)" /><path d="M512.198974609375 313.402587890625 432.800537109375 334.199462890625Q431.200439453125 368.7998046875 421.50018310546875 394.10003662109375Q411.7999267578125 419.4002685546875 394.59954833984375 433.400390625Q377.399169921875 447.4005126953125 351.998779296875 447.4005126953125Q326.3985595703125 447.4005126953125 305.498291015625 430.5006103515625Q284.5980224609375 413.6007080078125 268.19775390625 385.2008056640625Q251.7974853515625 356.8009033203125 240.39727783203125 321.8009033203125Q228.9970703125 286.8009033203125 223.096923828125 250.1007080078125Q217.19677734375 213.4005126953125 217.19677734375 180.800048828125Q217.19677734375 144.7996826171875 223.39691162109375 122.39935302734375Q229.5970458984375 99.9990234375 241.997314453125 89.298828125Q254.3975830078125 78.5986328125 272.197998046875 78.5986328125Q293.7984619140625 78.5986328125 313.098876953125 94.8988037109375Q332.3992919921875 111.198974609375 352.99969482421875 143.59930419921875Q373.60009765625 175.9996337890625 396.2005615234375 222.8001708984375L426.2003173828125 193.6002197265625Q393.6002197265625 128.400146484375 362.5001220703125 82.30010986328125Q331.4000244140625 36.2000732421875 294.70001220703125 11.50006103515625Q258 -13.199951171875 206.0001220703125 -13.199951171875Q151.80029296875 -13.199951171875 112.10040283203125 10.5Q72.4005126953125 34.199951171875 51.00054931640625 78.699951171875Q29.6005859375 123.199951171875 29.6005859375 186.0001220703125Q29.6005859375 239.0001220703125 43.0006103515625 288.40008544921875Q56.400634765625 337.800048828125 81.900634765625 380.20001220703125Q107.400634765625 422.5999755859375 144.2005615234375 454.49993896484375Q181.00048828125 486.39990234375 227.80029296875 503.9998779296875Q274.60009765625 521.599853515625 329.999755859375 521.599853515625Q391.9991455078125 521.599853515625 431.39886474609375 493.500244140625Q470.798583984375 465.400634765625 490.6986083984375 418.60125732421875Q510.5986328125 371.8018798828125 512.198974609375 313.402587890625ZM611.3968505859375 518.7996826171875 553.5966796875 193.398681640625Q549.9967041015625 171.7987060546875 546.896728515625 154.498779296875Q543.7967529296875 137.1988525390625 541.9967651367188 124.09893798828125Q540.19677734375 110.9990234375 540.19677734375 102.799072265625Q540.19677734375 89.799072265625 547.5968017578125 83.9990234375Q554.996826171875 78.198974609375 567.39697265625 78.198974609375Q584.9971923828125 78.198974609375 598.8975219726562 83.29913330078125Q612.7978515625 88.3992919921875 617.7979736328125 89.599365234375L604.798095703125 19.0001220703125Q594.1981201171875 13.2000732421875 576.8982543945312 6.2000732421875Q559.598388671875 -0.7999267578125 537.6986083984375 -5.39990234375Q515.798828125 -9.9998779296875 490.3990478515625 -9.9998779296875Q452.599609375 -9.9998779296875 424.29998779296875 2.70001220703125Q396.0003662109375 15.39990234375 380.800537109375 40.79962158203125Q365.6007080078125 66.1993408203125 365.6007080078125 104.598876953125Q365.6007080078125 111.9991455078125 366.4007568359375 120.0994873046875Q367.2008056640625 128.1998291015625 369.200927734375 141.200439453125L357.600830078125 110.800537109375L415.0006103515625 438.7994384765625L423.4005126953125 435.3997802734375L494.399169921875 518.7996826171875Z" fill="#1D2026" transform="translate(14.44,15) scale(0.02,-0.02)" /><path d="M239.3990478515625 -11Q183.5992431640625 -11 137.89947509765625 -0.5999755859375Q92.19970703125 9.800048828125 58.4998779296875 26.0001220703125Q24.800048828125 42.2001953125 3.2000732421875 60.600341796875L23 162.600341796875H150.598388671875L127.3983154296875 44Q112.3983154296875 50.5999755859375 104.79840087890625 63.4998779296875Q97.198486328125 76.3997802734375 96.39862060546875 91.89971923828125Q95.5987548828125 107.399658203125 101.598876953125 120.19970703125Q113.5989990234375 104.199462890625 132.1990966796875 90.69940185546875Q150.7991943359375 77.1993408203125 176.3992919921875 69.099365234375Q201.9993896484375 60.9993896484375 234.99951171875 60.9993896484375Q259.9998779296875 60.9993896484375 277.5001220703125 68.3995361328125Q295.0003662109375 75.7996826171875 304.20050048828125 89.2999267578125Q313.400634765625 102.8001708984375 313.400634765625 121.200439453125Q313.400634765625 134.6005859375 305.30059814453125 144.6007080078125Q297.2005615234375 154.600830078125 283.00048828125 163.00091552734375Q268.8004150390625 171.4010009765625 250.40032958984375 178.60107421875Q232.000244140625 185.8011474609375 211.8001708984375 194.001220703125Q177.6002197265625 207.80126953125 143.50030517578125 226.30126953125Q109.400390625 244.80126953125 86.90045166015625 274.8011474609375Q64.4005126953125 304.801025390625 64.4005126953125 352.6007080078125Q64.4005126953125 407.600341796875 93.2003173828125 444.2001953125Q122.0001220703125 480.800048828125 173.79974365234375 499.4000244140625Q225.599365234375 518 294.798828125 518Q342.99853515625 518 381.69830322265625 509.70001220703125Q420.3980712890625 501.4000244140625 448.29791259765625 487.79998779296875Q476.19775390625 474.199951171875 490.397705078125 457.7998046875L474.397705078125 364.7998046875H348.79931640625L365.599365234375 459.5999755859375Q373.3992919921875 459.5999755859375 381.39935302734375 449.0Q389.3994140625 438.4000244140625 392.0994873046875 424.99993896484375Q394.799560546875 411.599853515625 384.599609375 401.99951171875Q377.7996826171875 416.199951171875 365.19952392578125 426.3001708984375Q352.599365234375 436.400390625 334.79913330078125 441.80047607421875Q316.9989013671875 447.2005615234375 294.19873046875 447.2005615234375Q259.5980224609375 447.2005615234375 241.49774169921875 433.4002685546875Q223.3974609375 419.5999755859375 223.3974609375 396.599609375Q223.3974609375 379.3992919921875 237.79754638671875 367.1990966796875Q252.1976318359375 354.9989013671875 275.69775390625 344.69879150390625Q299.1978759765625 334.398681640625 326.197998046875 322.798583984375Q360.9979248046875 309.3985595703125 394.8978271484375 290.49859619140625Q428.7977294921875 271.5986328125 451.39764404296875 242.69873046875Q473.99755859375 213.798828125 473.99755859375 169.5989990234375Q473.99755859375 112.3994140625 446.6976318359375 71.79962158203125Q419.397705078125 31.1998291015625 367.0980224609375 10.09991455078125Q314.79833984375 -11 239.3990478515625 -11Z" fill="#1D2026" transform="translate(27.240000000000002,15) scale(0.02,-0.02)" /><path d="M480.7952880859375 182.598876953125 420.59521484375 358.3980712890625 344.9964599609375 271.1993408203125Q394.3963623046875 309.7994384765625 444.09625244140625 347.8995361328125Q493.796142578125 385.9996337890625 543.196044921875 424.0997314453125Q592.595947265625 462.1998291015625 641.995849609375 499.7999267578125V511.599853515625H505.7977294921875Q468.19775390625 473.199951171875 429.79779052734375 434.50006103515625Q391.3978271484375 395.8001708984375 353.49786376953125 357.10028076171875Q315.597900390625 318.400390625 276.9979248046875 279.4005126953125L275.9979248046875 268.4007568359375L316.5986328125 131.2000732421875Q329.998779296875 85.0001220703125 350.49871826171875 53.20013427734375Q370.9986572265625 21.400146484375 400.9984130859375 5.70013427734375Q430.9981689453125 -9.9998779296875 472.9976806640625 -9.9998779296875Q498.3973388671875 -9.9998779296875 520.7970581054688 -5.29986572265625Q543.19677734375 -0.599853515625 561.1965942382812 6.50018310546875Q579.1964111328125 13.6002197265625 589.3963623046875 19.80029296875L599.3963623046875 92.7994384765625Q596.396240234375 91.9993896484375 588.6961059570312 89.1993408203125Q580.9959716796875 86.3992919921875 571.5958251953125 83.999267578125Q562.1956787109375 81.5992431640625 551.7955322265625 81.5992431640625Q542.3955078125 81.5992431640625 533.095458984375 87.19927978515625Q523.79541015625 92.79931640625 515.2953491210938 104.79931640625Q506.7952880859375 116.79931640625 498.09527587890625 135.89923095703125Q489.395263671875 154.9991455078125 480.7952880859375 182.598876953125ZM21.2012939453125 0H203.7974853515625L333.3973388671875 735H92.199951171875L80.60009765625 668.600830078125L90.400146484375 666.600830078125Q106.800537109375 663.80078125 116.80078125 660.000732421875Q126.801025390625 656.20068359375 131.3011474609375 650.0006103515625Q135.80126953125 643.800537109375 133.4012451171875 633.0003662109375Z" fill="#1D2026" transform="translate(37.58,15) scale(0.02,-0.02)" /><path d="M286.7979736328125 389.599609375Q324.798095703125 392.1995849609375 362.49822998046875 393.799560546875Q400.1983642578125 395.3995361328125 437.89849853515625 397.49951171875Q475.5986328125 399.5994873046875 512.998779296875 401.199462890625L496.7989501953125 309.0003662109375Q460.3988037109375 311.600341796875 422.9986572265625 313.40032958984375Q385.5985107421875 315.2003173828125 348.6983642578125 317.30029296875Q311.7982177734375 319.4002685546875 274.3980712890625 321.000244140625ZM-25.599365234375 0 -12.99951171875 67.9991455078125H-2.5994873046875Q22.8009033203125 67.9991455078125 41.001220703125 74.9991455078125Q59.2015380859375 81.9991455078125 63.2015380859375 104.399169921875L152.0018310546875 606.0008544921875Q156.0018310546875 628.0008544921875 140.2015380859375 635.0008544921875Q124.4012451171875 642.0008544921875 98.2008056640625 642.0008544921875H87.80078125L100.400634765625 710H648.9989013671875L613.198974609375 507.200439453125H526.8001708984375L533.8001708984375 588.2008056640625Q535.8001708984375 606.2008056640625 526.10009765625 615.7008056640625Q516.4000244140625 625.2008056640625 495.8997802734375 628.2008056640625Q475.3995361328125 631.2008056640625 443.1990966796875 631.2008056640625H349.5977783203125L256.3974609375 103.9991455078125Q253.3974609375 86.9991455078125 263.297607421875 78.9991455078125Q273.19775390625 70.9991455078125 289.7979736328125 69.4991455078125Q306.398193359375 67.9991455078125 321.9984130859375 67.9991455078125H338.9984130859375L326.3985595703125 0Z" fill="#1D2026" transform="translate(50.06,15) scale(0.02,-0.02)" /><path d="M131.601318359375 633.0003662109375Q134.0013427734375 643.800537109375 129.501220703125 650.0006103515625Q125.0010986328125 656.20068359375 115.0008544921875 660.000732421875Q105.0006103515625 663.80078125 88.6002197265625 666.600830078125L78.8001708984375 668.600830078125L90.4000244140625 735H329.7974853515625L233.197265625 192.7987060546875Q229.5972900390625 171.19873046875 226.497314453125 153.8988037109375Q223.3973388671875 136.598876953125 221.79736328125 123.99896240234375Q220.1973876953125 111.3990478515625 220.1973876953125 102.799072265625Q220.1973876953125 89.799072265625 227.29742431640625 83.9990234375Q234.3974609375 78.198974609375 248.99755859375 78.198974609375Q259.7977294921875 78.198974609375 269.69793701171875 80.8990478515625Q279.59814453125 83.59912109375 287.29833984375 86.19921875Q294.99853515625 88.79931640625 298.1986083984375 89.599365234375L285.19873046875 19.0001220703125Q275.19873046875 12.60009765625 257.89886474609375 5.90008544921875Q240.5989990234375 -0.7999267578125 218.2991943359375 -5.39990234375Q195.9993896484375 -9.9998779296875 169.9996337890625 -9.9998779296875Q132.800048828125 -9.9998779296875 103.70037841796875 2.699951171875Q74.6007080078125 15.3997802734375 58.10089111328125 40.39947509765625Q41.60107421875 65.399169921875 41.60107421875 102.7987060546875Q41.60107421875 116.9986572265625 43.40106201171875 132.49859619140625Q45.2010498046875 147.99853515625 49.00103759765625 168.89849853515625Q52.801025390625 189.7984619140625 57.801025390625 218.7984619140625Z" fill="#1D2026" transform="translate(62.52,15) scale(0.02,-0.02)" /><path d="M400.8009033203125 207.798583984375Q406.4010009765625 228.3985595703125 409.7010498046875 249.59857177734375Q413.0010986328125 270.798583984375 414.60113525390625 291.0986328125Q416.201171875 311.398681640625 416.201171875 329.998779296875Q416.201171875 365.599365234375 407.70086669921875 390.49981689453125Q399.2005615234375 415.4002685546875 382.60003662109375 428.60052490234375Q365.99951171875 441.80078125 340.9989013671875 441.80078125Q320.3985595703125 441.80078125 303.5982666015625 430.30084228515625Q286.7979736328125 418.8009033203125 273.19775390625 399.4010009765625Q259.5975341796875 380.0010986328125 249.59735107421875 354.40118408203125Q239.59716796875 328.80126953125 232.5970458984375 300.601318359375Q227.39697265625 280.0013427734375 223.89691162109375 258.80133056640625Q220.3968505859375 237.601318359375 218.79681396484375 217.30126953125Q217.19677734375 197.001220703125 217.19677734375 178.401123046875Q217.19677734375 142.800537109375 225.69708251953125 117.90008544921875Q234.1973876953125 92.9996337890625 251.097900390625 79.79937744140625Q267.9984130859375 66.59912109375 292.3990478515625 66.59912109375Q312.9993896484375 66.59912109375 329.7996826171875 78.09906005859375Q346.5999755859375 89.5989990234375 360.2001953125 108.9989013671875Q373.8004150390625 128.3988037109375 383.80059814453125 153.99871826171875Q393.80078125 179.5986328125 400.8009033203125 207.798583984375ZM29.6005859375 230.799560546875Q29.6005859375 281.19970703125 43.7005615234375 325.69976806640625Q57.800537109375 370.1998291015625 84.6004638671875 406.099853515625Q111.400390625 441.9998779296875 149.000244140625 467.9998779296875Q186.60009765625 493.9998779296875 233.39984130859375 507.79986572265625Q280.1995849609375 521.599853515625 334.7991943359375 521.599853515625Q414.99853515625 521.599853515625 475.39813232421875 491.89990234375Q535.7977294921875 462.199951171875 569.7975463867188 407.300048828125Q603.79736328125 352.400146484375 603.79736328125 276.80029296875Q603.79736328125 226.400146484375 589.6973876953125 182.10009765625Q575.597412109375 137.800048828125 549.0974731445312 101.9000244140625Q522.5975341796875 66 484.9976806640625 40.20001220703125Q447.3978271484375 14.4000244140625 400.298095703125 0.60003662109375Q353.1983642578125 -13.199951171875 298.5987548828125 -13.199951171875Q219.3994140625 -13.199951171875 158.7998046875 16.29998779296875Q98.2001953125 45.7999267578125 63.900390625 100.99981689453125Q29.6005859375 156.19970703125 29.6005859375 230.799560546875Z" fill="#1D2026" transform="translate(68.92,15) scale(0.02,-0.02)" /><path d="M275.7984619140625 0H115.0013427734375L78.401123046875 409.6002197265625Q78.0010986328125 420.400390625 72.0009765625 426.6004638671875Q66.0008544921875 432.800537109375 55.60064697265625 436.6005859375Q45.200439453125 440.400634765625 29.0001220703125 443.20068359375L19.60009765625 445.20068359375L30.199951171875 511.599853515625H237.7974853515625L267.197998046875 57.198974609375L229.7987060546875 69.3988037109375Q251.998779296875 124.7989501953125 274.39886474609375 179.99908447265625Q296.7989501953125 235.19921875 319.09906005859375 290.6993408203125Q341.399169921875 346.199462890625 363.79925537109375 401.39959716796875Q386.1993408203125 456.5997314453125 408.3994140625 511.599853515625H547.5966796875L601.7972412109375 57.198974609375L569.597900390625 59.19921875Q588.197998046875 115.79931640625 606.3981323242188 172.4993896484375Q624.5982666015625 229.199462890625 643.098388671875 285.59954833984375Q661.5985107421875 341.9996337890625 680.0986328125 398.69970703125Q698.5987548828125 455.3997802734375 716.598876953125 511.599853515625H840.197265625V499.7999267578125Q811.3973388671875 437.199951171875 782.6973876953125 374.699951171875Q753.9974365234375 312.199951171875 725.2974853515625 249.89996337890625Q696.5975341796875 187.5999755859375 667.8975830078125 125.0999755859375Q639.1976318359375 62.5999755859375 610.397705078125 0H456.80029296875L410.7996826171875 341.4029541015625L429.39990234375 359.602783203125Q404.399658203125 300.0023193359375 378.59942626953125 239.90185546875Q352.7991943359375 179.8013916015625 327.2989501953125 120.200927734375Q301.7987060546875 60.6004638671875 275.7984619140625 0Z" fill="#1D2026" transform="translate(81.58,15) scale(0.02,-0.02)" /></svg>